<svg xmlns="http://www.w3.org/2000/svg" width="282.22" height="262.9" viewBox="0 0 211.665 197.175"><path d="M0 0c1-.2 1.4 1 1.8 1.7 1 1.6 2 4 2.8 5.8.4 1 1.8 4.1 1.8 4.9.1 2-3.5 5-4.9 6.5-.5.1-.8-.6-1-.9-.6-1-4.1-8-4.1-8.7V9c1-.6 4.4-4.1 4.7-5S-.1 1.2 0 0Zm-8.6 10.6q.5-.2 1 .3c.7.7 4.8 9.6 4.8 10.7 0 2.2-3.3 5.5-5.4 5.4q-.8-.1-1-1c-.6-.8-4.2-8-4.2-8.6V17c3.1-.8 6.6-2.7 4.8-6.4Zm108.8 65.7L95 65.9c1.8-1.3 5.2-2.2 5.8-4.6.2-.9-.3-1.9.5-2.5a58 58 0 0 1 4.6 8.7c1.8 4.8-1.6 7.2-5.7 8.8ZM5.6 27.6c.6-.1.9.5 1.1.9a65 65 0 0 1 4.3 8.8q.2.6.1 1.2c-.3 1-5.1 1.8-6.3 2a63 63 0 0 1-21.3.2c-.5.1-1.4 3-1.8 3.8-5.8 10.6-24.5 19.8-35.3 24.9q-23 10.9-47.5 17c-.2-.7.8-.9 1.3-1.1 24-11.4 53.4-25.1 71.4-45 2.6-3 5.2-6 6.1-10 2.3-.3 4.6.5 6.8.6 5.8.3 12.8 0 18.3-1.5 1-.3 3-.6 2.8-1.8Zm98.9 64.6h-.8c-.3-.3-3-6-3.5-6.8-1.3-3-2.2-3.7.6-6.2.6-.5 2.9-1.6 3-1.8.4-.6-.2-1.7.5-2.2.5 0 3 5.1 3.3 6 .6 1.3 2 3.8 2 5.3-.2 2.3-3.3 2.4-4.6 4.1-.4.6-.5 1.5-.5 1.6ZM68 42.3q2.7 2.4 5 5.2A50 50 0 0 1 79 62c0 4.3-4 6.9-7.6 8.5-6.4 3-23.3 6.4-27 11.4-1.4 1.7-.4 1.9 1.1 3 5.8 4.2 27 11.2 32.7 5.7.4-.4.7-1.6 1.2-1.5q2 3.5 3.8 7.1c1 2.6 2 4.5-1.3 6-9 3.6-29-3.3-35.8-9.9a48 48 0 0 1-8.6-16.7c-.2-5.3 6.8-8 10.8-9.5 6.2-2.4 19-5.1 23.3-9.6 2.2-2.1 2-2.8-.3-4.4-6.5-4.4-17-6.7-24.8-8-3.5-.6-12.7-2.3-15.8-1.7-3 .6-6 7.2-7.7 9.8-12 17.2-37 32-57 37.8-10.7 3-30.8 8.4-41.5 7.7q-.7.1-1.2-.5a94 94 0 0 0 18.6-6.1 353 353 0 0 0 41.8-21.3 106 106 0 0 0 34.4-28.7c2.8-4 4.3-9.5 9.6-10.5 6.4-1.3 17.3.5 24.1.8 13.4.5 29.3 1 42.3-2 1.8-.5 4.3-.9 5.4-2.5l5.1 9.7q.3 1.5-1.1 2c-4 2.3-19 3.4-24 3.6Zm0 0" style="fill:none;stroke-width:1;stroke-linecap:butt;stroke-linejoin:miter;stroke:#F1F3F2;stroke-opacity:1;stroke-miterlimit:10" transform="matrix(.99583 0 0 -.99583 101.499 195.831)"/><path d="M0 0h11.6c5-.2 20-1.4 24-3.6q1.4-.5 1.1-2l-5-9.7c-1.1 1.6-3.6 2-5.5 2.4a161 161 0 0 1-42.2 2c-7-.2-17.8-2-24.2-.7-5.3 1-6.8 6.5-9.6 10.5-8.2 12-22 21.5-34.4 28.7A353 353 0 0 1-126 49c-6 2.4-12.3 4.8-18.7 6q.5.7 1.2.5c10.7.8 30.8-4.5 41.4-7.6 20-5.9 45-20.7 57-38C-43 7.2-40.2.7-37 .1c3-.7 12.2 1 15.7 1.7a69 69 0 0 1 24.8 8c2.3 1.6 2.5 2.2.4 4.4-4.4 4.4-17.2 7.2-23.4 9.5-4 1.6-11 4.3-10.7 9.5A48 48 0 0 0-21.7 50C-15 56.6 5 63.5 14 59.8c3.4-1.5 2.4-3.3 1.3-5.9q-1.7-3.6-3.7-7.1c-.6-.1-.9 1-1.3 1.5-5.6 5.5-26.8-1.5-32.7-5.8-1.5-1-2.5-1.2-1.1-3 3.8-5 20.7-8.4 27-11.3 3.5-1.6 7.7-4.2 7.7-8.6 0-2.7-4.6-12-6.2-14.4Q2.7 2.4 0 0Zm0 0" style="fill:none;stroke-width:1;stroke-linecap:butt;stroke-linejoin:miter;stroke:#F1F3F2;stroke-opacity:1;stroke-miterlimit:10" transform="matrix(.99583 0 0 -.99583 169.192 153.68)"/><path d="M0 0c.2 1.3-1.8 1.5-2.8 1.8A58 58 0 0 1-21 3.3c-2.3 0-4.5-.8-6.8-.5-1 3.9-3.6 7-6.2 9.9-18 20-47.4 33.7-71.4 45-.4.3-1.5.4-1.3 1q24.6-6 47.5-16.9c10.8-5 29.6-14.3 35.3-25 .4-.7 1.3-3.5 1.8-3.7A63 63 0 0 0-.8 13c1.2-.2 6-1 6.3-2q.2-.7 0-1.3C5 8.5 2 2.1 1.1 1Q.9.1 0 0Zm0 0" style="fill:none;stroke-width:1;stroke-linecap:butt;stroke-linejoin:miter;stroke:#F1F3F2;stroke-opacity:1;stroke-miterlimit:10" transform="matrix(.99583 0 0 -.99583 107.049 168.381)"/><path d="M0 0c4-1.6 7.5-4 5.7-8.8a50 50 0 0 0-4.6-8.7c-.8.6-.3 1.7-.5 2.6-.6 2.3-4 3.2-5.8 4.5Zm0 0" style="fill:none;stroke-width:1;stroke-linecap:butt;stroke-linejoin:miter;stroke:#F1F3F2;stroke-opacity:1;stroke-miterlimit:10" transform="matrix(.99583 0 0 -.99583 201.263 119.874)"/><path d="M0 0s.1-1 .6-1.5C1.8-3.3 4.9-3.4 5-5.7c.1-1.5-1.2-4-1.9-5.3-.4-.9-2.8-6-3.2-6-.8.6-.2 1.6-.6 2.2 0 .2-2.3 1.4-3 1.8-2.8 2.5-1.8 3.3-.5 6.2.4.9 3 6.6 3.4 6.7zm0 0" style="fill:none;stroke-width:1;stroke-linecap:butt;stroke-linejoin:miter;stroke:#F1F3F2;stroke-opacity:1;stroke-miterlimit:10" transform="matrix(.99583 0 0 -.99583 205.532 104.047)"/><path d="M0 0c-.1 1.2 1.3 3 1 4-.2.9-3.6 4.4-4.6 5v.3c0 .8 3.5 7.7 4.1 8.7.2.3.5 1 1 1 1.4-1.5 5-4.6 5-6.6-.1-.8-1.5-4-2-4.9-.7-1.8-1.7-4.2-2.7-5.8C1.4.9 1-.3 0 0Zm0 0" style="fill:none;stroke-width:1;stroke-linecap:butt;stroke-linejoin:miter;stroke:#F1F3F2;stroke-opacity:1;stroke-miterlimit:10" transform="matrix(.99583 0 0 -.99583 101.499 195.831)"/><path d="M0 0c1.8 3.7-1.6 5.6-4.7 6.4v.4a74 74 0 0 0 4 8.7c.4.4.5.9 1.1 1 2.1 0 5.5-3.3 5.4-5.5 0-1-4-10-4.8-10.7Q.6-.1 0 0Zm0 0" style="fill:none;stroke-width:1;stroke-linecap:butt;stroke-linejoin:miter;stroke:#F1F3F2;stroke-opacity:1;stroke-miterlimit:10" transform="matrix(.99583 0 0 -.99583 92.898 185.294)"/><path d="M0 0c.2.9 3.6 4.4 4.6 5v.3c0 .8-3.4 7.8-4 8.8-.2.3-.6 1-1 .9-1.4-1.5-5-4.6-5-6.6 0-.7 1.5-3.9 1.9-4.8A40 40 0 0 1-.7-2.3C-.3-3 0-4.2 1-4c.2 1.2-1.2 3-1 4Zm14.4 13v.4c0 .7-3.5 7.8-4 8.7-.4.4-.5.9-1.1 1-2 0-5.5-3.3-5.4-5.5 0-1 4-10 4.8-10.7q.4-.5 1-.3c-1.8 3.7 1.6 5.6 4.7 6.4Zm-119.3 50.5c.4-1 4.2-8.7 4.7-8.7.8.6.2 1.7.5 2.6.6 2.3 4 3.3 5.7 4.5l-5 10.4c-4-1.6-7.5-4-5.8-8.8Zm103.2-38a58 58 0 0 0 18.2 1.4c2.3 0 4.5-.8 6.8-.5 1 3.9 3.6 7 6.2 9.9 18 20 47.4 33.7 71.4 45 .4.3 1.5.4 1.3 1q-24.6-6-47.6-16.9c-10.7-5-29.5-14.3-35.2-24.9-.4-.8-1.3-3.6-1.8-3.8Q7 38.4-3.7 36.7c-1.2-.3-6-1.2-6.3-2.2v-1.2a89 89 0 0 1 4.3-8.8c.3-.4.6-1 1.2-.9-.2 1.3 1.8 1.5 2.8 1.8ZM-104 86.6c-1.2-1.7-4.4-1.9-4.5-4.2 0-1.5 1.3-4 2-5.3.3-.9 2.8-6 3.2-6 .8.6.2 1.6.6 2.3l3 1.8c2.8 2.4 1.8 3.2.5 6.1-.4.9-3 6.6-3.4 6.8h-.8s-.1-1-.6-1.5Zm25.5-48.3c-5-.2-20-1.4-24-3.6q-1.4-.6-1.1-2l5-9.7c1.1 1.6 3.6 2 5.4 2.4 13 3 29 2.5 42.3 2 7-.3 17.8-2 24.2-.8 5.3 1 6.8 6.5 9.5 10.5 8.3 12 22 21.6 34.5 28.8A353 353 0 0 0 59 87.2a100 100 0 0 0 18.7 6.2q-.5.5-1.3.4c-10.6.8-30.7-4.6-41.3-7.7C15 80.3-10 65.4-22 48.2c-1.8-2.6-4.7-9.1-7.8-9.8-3-.6-12.2 1.1-15.7 1.7a69 69 0 0 0-24.8 8c-2.4 1.6-2.5 2.3-.4 4.5 4.4 4.4 17.2 7.1 23.4 9.5 4 1.5 11 4.3 10.7 9.5a48 48 0 0 1-8.6 16.8C-52 95-72 101.9-80.9 98c-3.4-1.4-2.4-3.3-1.3-5.8q1.6-3.6 3.7-7.2c.5 0 .8 1.1 1.3 1.6 5.6 5.5 26.8-1.5 32.7-5.8 1.5-1 2.5-1.2 1.1-3-3.8-5-20.7-8.4-27-11.4-3.5-1.6-7.7-4.2-7.7-8.5a49 49 0 0 1 6.2-14.4q2.3-2.9 5-5.2Zm0 0" style="fill:none;stroke-width:1;stroke-linecap:butt;stroke-linejoin:miter;stroke:#F1F3F2;stroke-opacity:1;stroke-miterlimit:10" transform="matrix(.99583 0 0 -.99583 108.774 191.886)"/><path d="M0 0h-11.6c-5-.2-20-1.4-24-3.6q-1.4-.5-1.1-2l5-9.7c1.1 1.6 3.6 2 5.5 2.4a161 161 0 0 0 42.2 2c7-.2 17.8-2 24.2-.7 5.3 1 6.8 6.5 9.6 10.5 8.2 12 22 21.5 34.4 28.7A353 353 0 0 0 126 49c6 2.4 12.3 4.8 18.7 6q-.5.7-1.2.5c-10.7.8-30.8-4.5-41.4-7.6-20-5.9-45-20.7-57-38C43 7.2 40.2.7 37 .1c-3-.7-12.2 1-15.7 1.7a69 69 0 0 0-24.8 8c-2.3 1.6-2.5 2.2-.4 4.4 4.4 4.4 17.2 7.2 23.4 9.5 4 1.6 11 4.3 10.7 9.5A48 48 0 0 1 21.7 50C15 56.6-5 63.5-14 59.8c-3.4-1.5-2.4-3.3-1.3-5.9q1.7-3.6 3.7-7.1c.6-.1.9 1 1.3 1.5 5.6 5.5 26.8-1.5 32.7-5.8 1.5-1 2.5-1.2 1.1-3-3.8-5-20.7-8.4-27-11.3-3.5-1.6-7.7-4.2-7.7-8.6 0-2.7 4.6-12 6.2-14.4Q-2.7 2.4 0 0Zm0 0" style="fill:none;stroke-width:1;stroke-linecap:butt;stroke-linejoin:miter;stroke:#F1F3F2;stroke-opacity:1;stroke-miterlimit:10" transform="matrix(.99583 0 0 -.99583 42.14 153.68)"/><path d="M0 0c-.2 1.3 1.8 1.5 2.8 1.8A58 58 0 0 0 21 3.3c2.3 0 4.5-.8 6.8-.5 1 3.9 3.6 7 6.2 9.9 18 20 47.4 33.7 71.4 45 .4.3 1.5.4 1.3 1q-24.6-6-47.5-16.9c-10.8-5-29.6-14.3-35.3-25-.4-.7-1.3-3.5-1.8-3.7A63 63 0 0 1 .8 13c-1.2-.2-6-1-6.3-2V9.7C-5 8.5-2 2.1-1.1 1Q-.9.1 0 0Zm0 0" style="fill:none;stroke-width:1;stroke-linecap:butt;stroke-linejoin:miter;stroke:#F1F3F2;stroke-opacity:1;stroke-miterlimit:10" transform="matrix(.99583 0 0 -.99583 104.283 168.381)"/><path d="M0 0c-4-1.6-7.5-4-5.7-8.8a56 56 0 0 1 4.6-8.7c.8.6.3 1.7.5 2.6.6 2.3 4 3.2 5.8 4.5Zm0 0" style="fill:none;stroke-width:1;stroke-linecap:butt;stroke-linejoin:miter;stroke:#F1F3F2;stroke-opacity:1;stroke-miterlimit:10" transform="matrix(.99583 0 0 -.99583 10.068 119.874)"/><path d="M0 0s-.1-1-.6-1.5C-1.8-3.3-4.9-3.4-5-5.7c-.1-1.5 1.2-4 1.9-5.3.4-.9 2.8-6 3.2-6 .8.6.2 1.6.6 2.2 0 .2 2.3 1.4 3 1.8 2.8 2.5 1.8 3.3.5 6.2L.8 0zm0 0" style="fill:none;stroke-width:1;stroke-linecap:butt;stroke-linejoin:miter;stroke:#F1F3F2;stroke-opacity:1;stroke-miterlimit:10" transform="matrix(.99583 0 0 -.99583 5.8 104.047)"/><path d="M0 0c.1 1.2-1.3 3-1 4 .2.9 3.6 4.4 4.6 5v.3A68 68 0 0 1-.5 18c-.2.3-.5 1-1 1-1.4-1.5-5-4.6-5-6.6.1-.8 1.5-4 2-4.9.7-1.8 1.7-4.2 2.7-5.8C-1.4.9-1-.2 0 0Zm0 0" style="fill:none;stroke-width:1;stroke-linecap:butt;stroke-linejoin:miter;stroke:#F1F3F2;stroke-opacity:1;stroke-miterlimit:10" transform="matrix(.99583 0 0 -.99583 109.833 195.831)"/><path d="M0 0c-1.8 3.7 1.6 5.6 4.7 6.4v.4c0 .7-3.5 7.8-4 8.7-.4.4-.5.9-1.1 1-2.1 0-5.5-3.3-5.4-5.5 0-1 4-10 4.8-10.7q.4-.4 1-.3Zm0 0" style="fill:none;stroke-width:1;stroke-linecap:butt;stroke-linejoin:miter;stroke:#F1F3F2;stroke-opacity:1;stroke-miterlimit:10" transform="matrix(.99583 0 0 -.99583 118.434 185.294)"/><path d="M0 0c-.2-.9-3.6-4.4-4.6-5v-.3a68 68 0 0 1 4-8.8c.2-.3.6-1 1-.8 1.4 1.4 5 4.5 5 6.5 0 .7-1.5 3.9-1.9 4.8L.8 2.3C.3 3-.2 4.2-1.1 4-1 2.8.2 1 0 0Zm-14.4-13v-.4c0-.7 3.5-7.8 4-8.7.4-.4.5-.9 1.1-1 2 0 5.5 3.3 5.4 5.5 0 1-4 10-4.8 10.7q-.4.5-1 .3c1.8-3.7-1.6-5.6-4.7-6.4Zm119.3-50.5c-.4 1-4.2 8.7-4.7 8.7-.8-.6-.2-1.7-.5-2.6-.6-2.3-4-3.3-5.7-4.5l5-10.4c4 1.6 7.5 4 5.8 8.8ZM1.7-25.5a57 57 0 0 0-18.2-1.4c-2.3 0-4.5.8-6.8.5-1-3.9-3.6-7-6.2-9.9-18-20-47.4-33.7-71.4-45-.4-.3-1.5-.4-1.3-1a251 251 0 0 1 47.6 16.9c10.7 5 29.5 14.3 35.2 24.9.4.8 1.3 3.6 1.8 3.8q10.7-1.7 21.3.1c1.2.2 6 1 6.3 2v1.3a89 89 0 0 1-4.3 8.8c-.3.4-.6 1-1.2.9.2-1.3-1.8-1.5-2.8-1.8ZM104-86.6c1.2 1.8 4.4 1.9 4.5 4.2 0 1.5-1.3 4-2 5.3-.4.9-2.8 6-3.2 6-.8-.6-.2-1.6-.6-2.3l-3-1.8c-2.8-2.4-1.8-3.2-.5-6.1.4-.9 3-6.6 3.4-6.7l.8-.1s.1 1 .6 1.5ZM78.5-38.4c5 .2 20 1.4 24 3.6q1.4.6 1.1 2l-5 9.8c-1.1-1.7-3.6-2-5.4-2.5-13-3-29-2.5-42.3-2-7 .3-17.8 2-24.2.8-5.3-1-6.8-6.5-9.5-10.5-8.3-12-22-21.6-34.5-28.8A353 353 0 0 0-59-87.2a100 100 0 0 0-18.7-6.2q.5-.5 1.3-.4c10.6-.8 30.7 4.6 41.3 7.7 20 5.8 45 20.7 57.1 38 1.8 2.5 4.7 9 7.8 9.7s12.2-1.1 15.7-1.7a68 68 0 0 0 24.8-8c2.4-1.6 2.5-2.3.4-4.5-4.4-4.4-17.2-7.1-23.4-9.5-4-1.5-11-4.3-10.7-9.5a48 48 0 0 1 8.6-16.8C52-95 72-101.9 80.9-98c3.4 1.4 2.4 3.3 1.3 5.8q-1.6 3.6-3.7 7.2c-.5 0-.8-1.1-1.3-1.6-5.6-5.5-26.8 1.5-32.7 5.8-1.5 1-2.5 1.2-1.1 3 3.8 5 20.7 8.4 27 11.4 3.5 1.6 7.7 4.2 7.7 8.5a49 49 0 0 1-6.2 14.4q-2.3 2.9-5 5.2Zm0 0" style="fill:none;stroke-width:1;stroke-linecap:butt;stroke-linejoin:miter;stroke:#F1F3F2;stroke-opacity:1;stroke-miterlimit:10" transform="matrix(.99583 0 0 -.99583 102.558 4.468)"/><path d="M0 0h11.6c5 .2 20 1.4 24 3.6q1.4.5 1.1 2l-5 9.7c-1.1-1.6-3.6-2-5.5-2.4a161 161 0 0 0-42.2-2c-7 .2-17.8 2-24.2.7-5.3-1-6.8-6.5-9.6-10.5-8.2-12-22-21.5-34.4-28.7A354 354 0 0 0-126-49c-6-2.4-12.3-4.8-18.7-6 .3-.6.8-.5 1.2-.5 10.7-.8 30.8 4.5 41.4 7.6 20 5.9 45 20.7 57 38 2 2.6 4.7 9.1 7.9 9.7 3 .7 12.2-1 15.7-1.7a68 68 0 0 0 24.8-8c2.3-1.6 2.5-2.3.4-4.4-4.4-4.4-17.2-7.2-23.4-9.5-4-1.6-11-4.3-10.7-9.5A48 48 0 0 1-21.7-50C-15-56.6 5-63.5 14-59.8c3.4 1.4 2.4 3.3 1.3 5.9q-1.7 3.6-3.7 7.1c-.6.1-.9-1-1.3-1.5-5.6-5.5-26.8 1.5-32.7 5.7-1.5 1.1-2.5 1.3-1.1 3 3.8 5 20.7 8.5 27 11.4 3.5 1.6 7.7 4.2 7.7 8.6 0 2.7-4.6 12-6.2 14.4Q2.7-2.4 0 0Zm0 0" style="fill:none;stroke-width:1;stroke-linecap:butt;stroke-linejoin:miter;stroke:#F1F3F2;stroke-opacity:1;stroke-miterlimit:10" transform="matrix(.99583 0 0 -.99583 169.192 42.673)"/><path d="M0 0c.2-1.3-1.8-1.5-2.8-1.8A58 58 0 0 0-21-3.3c-2.3 0-4.5.8-6.8.5-1-3.9-3.6-7-6.2-9.9-18-20-47.4-33.7-71.4-45-.4-.3-1.5-.4-1.3-1a251 251 0 0 1 47.5 16.9c10.8 5 29.6 14.3 35.3 24.9.4.8 1.3 3.6 1.8 3.8q10.6-1.7 21.3.1c1.2.2 6 1 6.3 2q.2.7 0 1.3C5-8.5 2-2.1 1.1-1Q.9-.1 0 0Zm0 0" style="fill:none;stroke-width:1;stroke-linecap:butt;stroke-linejoin:miter;stroke:#F1F3F2;stroke-opacity:1;stroke-miterlimit:10" transform="matrix(.99583 0 0 -.99583 107.049 27.972)"/><path d="M0 0c4 1.6 7.5 4 5.7 8.8a50 50 0 0 1-4.6 8.7C.3 17 .8 15.8.6 15c-.6-2.3-4-3.2-5.8-4.5Zm0 0" style="fill:none;stroke-width:1;stroke-linecap:butt;stroke-linejoin:miter;stroke:#F1F3F2;stroke-opacity:1;stroke-miterlimit:10" transform="matrix(.99583 0 0 -.99583 201.263 76.48)"/><path d="M0 0s.1 1 .6 1.5C1.8 3.3 4.9 3.4 5 5.7c.1 1.5-1.2 4-1.9 5.3-.4.9-2.8 6-3.2 6-.8-.6-.2-1.6-.6-2.2 0-.2-2.3-1.4-3-1.9-2.8-2.4-1.8-3.2-.5-6.1.4-.9 3-6.6 3.4-6.7zm0 0" style="fill:none;stroke-width:1;stroke-linecap:butt;stroke-linejoin:miter;stroke:#F1F3F2;stroke-opacity:1;stroke-miterlimit:10" transform="matrix(.99583 0 0 -.99583 205.532 92.306)"/><path d="M0 0c-.1-1.2 1.3-3 1-4-.2-.9-3.6-4.4-4.6-5v-.3A68 68 0 0 1 .5-18c.2-.3.5-1 1-1 1.4 1.5 5 4.6 5 6.6-.1.8-1.5 4-2 4.9-.7 1.8-1.7 4.2-2.7 5.8C1.4-.9 1 .3 0 0Zm0 0" style="fill:none;stroke-width:1;stroke-linecap:butt;stroke-linejoin:miter;stroke:#F1F3F2;stroke-opacity:1;stroke-miterlimit:10" transform="matrix(.99583 0 0 -.99583 101.499 .522)"/><path d="M0 0c1.8-3.7-1.6-5.6-4.7-6.4v-.4c0-.7 3.5-7.8 4-8.7.4-.4.5-.9 1.1-1 2 0 5.5 3.3 5.4 5.5 0 1-4 10-4.8 10.7Q.6.2 0 0Zm0 0" style="fill:none;stroke-width:1;stroke-linecap:butt;stroke-linejoin:miter;stroke:#F1F3F2;stroke-opacity:1;stroke-miterlimit:10" transform="matrix(.99583 0 0 -.99583 92.898 11.06)"/><path d="M0 0c-1 .2-1.4-1-1.8-1.7-1-1.6-2-4-2.8-5.8-.4-1-1.8-4.1-1.8-4.9-.1-2 3.5-5 4.9-6.5.5-.1.8.6 1 .9.6 1 4.1 8 4.1 8.7v.3c-1 .6-4.4 4.1-4.7 5S.1-1.2 0 0Zm8.6-10.6q-.5 0-1-.3a52 52 0 0 1-4.8-10.7c0-2.2 3.3-5.5 5.4-5.4q.8.1 1 1c.6.8 4.2 8 4.2 8.6v.4c-3.1.8-6.6 2.8-4.8 6.4Zm-108.8-65.7 5.2 10.4c-1.8 1.3-5.2 2.2-5.8 4.6-.2.9.3 2-.5 2.5a56 56 0 0 1-4.6-8.7c-1.8-4.8 1.6-7.2 5.7-8.8Zm94.6 48.7c-.6.1-.9-.5-1.1-.9a65 65 0 0 1-4.3-8.8q-.2-.6-.1-1.2c.3-1 5.1-1.8 6.3-2q10.7-2 21.3-.2c.5-.1 1.4-3 1.8-3.8C24.1-55 42.8-64.3 53.6-69.4a251 251 0 0 1 47.5-17c.2.7-.8.9-1.3 1.1-24 11.4-53.4 25.1-71.4 45-2.6 3-5.2 6-6.1 10-2.3.3-4.6-.5-6.8-.6-5.8-.3-12.8 0-18.3 1.5-1 .3-3 .6-2.8 1.8Zm-98.9-64.6h.8c.3.3 3 6 3.5 6.8 1.3 3 2.2 3.7-.6 6.2-.6.5-2.9 1.6-3 1.8-.4.6.2 1.7-.5 2.2-.5 0-3-5.1-3.3-6-.6-1.3-2-3.8-2-5.3.2-2.3 3.3-2.4 4.6-4.1.4-.6.5-1.5.5-1.6ZM-68-42.3q-2.7-2.4-5-5.2A50 50 0 0 1-79-62c0-4.3 4-6.9 7.6-8.5 6.4-3 23.3-6.4 27-11.4 1.4-1.7.4-1.9-1.1-3-5.8-4.2-27-11.2-32.7-5.7-.4.4-.7 1.6-1.2 1.5q-2-3.5-3.8-7.1c-1-2.6-2-4.5 1.3-6 9-3.6 29 3.3 35.8 9.9a48 48 0 0 1 8.6 16.7c.2 5.3-6.8 8-10.8 9.5-6.2 2.4-19 5.1-23.3 9.6-2.2 2.1-2 2.8.3 4.4 6.5 4.4 17 6.7 24.8 8 3.5.6 12.7 2.3 15.8 1.7 3-.6 6-7.2 7.7-9.8 12-17.2 37-32 57-37.8 10.7-3 30.8-8.4 41.5-7.7q.8-.1 1.2.5a87 87 0 0 0-18.7 6 354 354 0 0 0-41.8 21.3 106 106 0 0 0-34.4 28.7c-2.8 4-4.3 9.5-9.6 10.5-6.4 1.3-17.3-.5-24.1-.8-13.4-.5-29.3-1-42.3 2-1.8.5-4.3.9-5.4 2.5l-5.1-9.7q-.3-1.5 1.1-2a92 92 0 0 1 24-3.6Zm0 0" style="fill:none;stroke-width:1;stroke-linecap:butt;stroke-linejoin:miter;stroke:#F1F3F2;stroke-opacity:1;stroke-miterlimit:10" transform="matrix(.99583 0 0 -.99583 109.833 .522)"/><path d="M0 0h-11.6a92 92 0 0 0-24 3.6q-1.4.6-1.1 2l5 9.7c1.1-1.6 3.6-2 5.5-2.4a161 161 0 0 1 42.2-2c7 .2 17.8 2 24.2.7 5.3-1 6.8-6.5 9.6-10.5 8.2-12 22-21.5 34.4-28.7A354 354 0 0 1 126-49c6-2.4 12.3-4.8 18.7-6-.3-.6-.8-.5-1.2-.5-10.7-.8-30.8 4.5-41.4 7.6-20 5.9-45 20.7-57 38C43-7.2 40.2-.7 37-.1 34.1.6 25-1 21.4-1.8a68 68 0 0 1-24.8-8c-2.3-1.6-2.5-2.2-.4-4.4 4.4-4.4 17.2-7.2 23.4-9.5 4-1.6 11-4.3 10.7-9.5A48 48 0 0 0 21.7-50C15-56.6-5-63.5-14-59.8c-3.4 1.4-2.4 3.3-1.3 5.9q1.7 3.6 3.7 7.1c.6.1.9-1 1.3-1.5 5.6-5.5 26.8 1.5 32.7 5.7 1.5 1.1 2.5 1.3 1.1 3-3.8 5-20.7 8.5-27 11.4-3.5 1.6-7.7 4.2-7.7 8.6 0 2.7 4.6 12 6.2 14.4Q-2.7-2.4 0 0Zm0 0" style="fill:none;stroke-width:1;stroke-linecap:butt;stroke-linejoin:miter;stroke:#F1F3F2;stroke-opacity:1;stroke-miterlimit:10" transform="matrix(.99583 0 0 -.99583 42.14 42.673)"/><path d="M0 0c-.2-1.3 1.8-1.5 2.8-1.8A58 58 0 0 1 21-3.3c2.3 0 4.5.8 6.8.5 1-3.9 3.6-7 6.2-9.9 18-20 47.4-33.7 71.4-45 .4-.3 1.5-.4 1.3-1a251 251 0 0 0-47.5 16.9c-10.8 5-29.6 14.3-35.3 24.9-.4.8-1.3 3.6-1.8 3.8Q11.5-14.8.8-13c-1.2.2-6 1-6.3 2v1.3A70 70 0 0 0-1.1-1c.3.4.6 1 1.2.9Zm0 0" style="fill:none;stroke-width:1;stroke-linecap:butt;stroke-linejoin:miter;stroke:#F1F3F2;stroke-opacity:1;stroke-miterlimit:10" transform="matrix(.99583 0 0 -.99583 104.283 27.972)"/><path d="M0 0c-4 1.6-7.5 4-5.7 8.8a56 56 0 0 0 4.6 8.7c.8-.6.3-1.7.5-2.6.6-2.3 4-3.2 5.8-4.5Zm0 0" style="fill:none;stroke-width:1;stroke-linecap:butt;stroke-linejoin:miter;stroke:#F1F3F2;stroke-opacity:1;stroke-miterlimit:10" transform="matrix(.99583 0 0 -.99583 10.068 76.48)"/><path d="M0 0s-.1 1-.6 1.5C-1.8 3.3-4.9 3.4-5 5.7c-.1 1.5 1.2 4 1.9 5.3.4.9 2.8 6 3.2 6 .8-.6.2-1.6.6-2.2 0-.2 2.3-1.4 3-1.9 2.8-2.4 1.8-3.2.5-6.1L.8 0zm0 0" style="fill:none;stroke-width:1;stroke-linecap:butt;stroke-linejoin:miter;stroke:#F1F3F2;stroke-opacity:1;stroke-miterlimit:10" transform="matrix(.99583 0 0 -.99583 5.8 92.306)"/><path d="M0 0c.1-1.2-1.3-3-1-4 .2-.9 3.6-4.4 4.6-5v-.3C3.6-10.1.1-17-.5-18c-.2-.3-.5-1-1-1-1.4 1.5-5 4.6-5 6.6.1.8 1.5 4 2 4.9.7 1.8 1.7 4.2 2.7 5.8.4.8.8 2 1.8 1.7Zm0 0" style="fill:none;stroke-width:1;stroke-linecap:butt;stroke-linejoin:miter;stroke:#F1F3F2;stroke-opacity:1;stroke-miterlimit:10" transform="matrix(.99583 0 0 -.99583 109.833 .522)"/><path d="M0 0c-1.8-3.7 1.6-5.6 4.7-6.4v-.4a74 74 0 0 0-4-8.7c-.4-.4-.5-.9-1.1-1-2.1 0-5.5 3.3-5.4 5.5 0 1 4 10 4.8 10.7q.4.5 1 .3Zm0 0" style="fill:none;stroke-width:1;stroke-linecap:butt;stroke-linejoin:miter;stroke:#F1F3F2;stroke-opacity:1;stroke-miterlimit:10" transform="matrix(.99583 0 0 -.99583 118.434 11.06)"/></svg>